<svg width="16" height="28" viewBox="0 0 16 28" fill="none" xmlns="http://www.w3.org/2000/svg">
<rect width="16" height="28" fill="white"/>
<path d="M7.35925 0.408479C7.60242 -0.13616 8.39757 -0.13616 8.64074 0.408479L10.1117 3.70354C10.2129 3.93022 10.4329 4.08553 10.6862 4.10896L14.367 4.44965C14.9754 4.50596 15.2211 5.24053 14.7629 5.63342L11.9913 8.01059C11.8006 8.17414 11.7165 8.4254 11.7718 8.66656L12.5757 12.1722C12.7086 12.7517 12.0653 13.2056 11.539 12.9038L8.35504 11.0779C8.13604 10.9523 7.86396 10.9523 7.64495 11.0779L4.46099 12.9038C3.93471 13.2056 3.29142 12.7517 3.42429 12.1722L4.22814 8.66656C4.28344 8.4254 4.19938 8.17414 4.00872 8.01059L1.23706 5.63342C0.778943 5.24053 1.02465 4.50596 1.63305 4.44965L5.31382 4.10896C5.56703 4.08553 5.7871 3.93022 5.88829 3.70354L7.35925 0.408479Z" fill="#F0EFED"/>
<path d="M7.35925 14.4085C7.60242 13.8638 8.39757 13.8638 8.64074 14.4085L10.1117 17.7035C10.2129 17.9302 10.4329 18.0855 10.6862 18.109L14.367 18.4497C14.9754 18.506 15.2211 19.2405 14.7629 19.6334L11.9913 22.0106C11.8006 22.1741 11.7165 22.4254 11.7718 22.6666L12.5757 26.1722C12.7086 26.7517 12.0653 27.2056 11.539 26.9038L8.35504 25.0779C8.13604 24.9523 7.86396 24.9523 7.64495 25.0779L4.46099 26.9038C3.93471 27.2056 3.29142 26.7517 3.42429 26.1722L4.22814 22.6666C4.28344 22.4254 4.19938 22.1741 4.00872 22.0106L1.23706 19.6334C0.778943 19.2405 1.02465 18.506 1.63305 18.4497L5.31382 18.109C5.56703 18.0855 5.7871 17.9302 5.88829 17.7035L7.35925 14.4085Z" fill="#FF6153"/>
</svg>
